<?xml version="1.0" standalone="no"?>
<!DOCTYPE svg PUBLIC "-//W3C//DTD SVG 20010904//EN"
 "http://www.w3.org/TR/2001/REC-SVG-20010904/DTD/svg10.dtd">
<svg version="1.0" xmlns="http://www.w3.org/2000/svg"
 width="800.000000pt" height="800.000000pt" viewBox="0 0 800.000000 800.000000"
 preserveAspectRatio="xMidYMid meet">
<metadata>
Created by potrace 1.11, written by Peter Selinger 2001-2013
</metadata>
<g transform="translate(0.000000,800.000000) scale(0.100000,-0.100000)"
fill="#000000" stroke="none">
<path d="M3886 7488 c-368 -49 -677 -309 -789 -663 -35 -111 -38 -133 -42
-270 -11 -422 241 -781 653 -929 39 -14 72 -24 72 -21 0 2 11 0 25 -5 27 -10
156 -24 220 -23 354 4 703 227 848 543 48 103 55 125 75 216 20 97 27 290 11
348 -4 17 -11 47 -14 66 -9 53 -54 178 -83 229 -98 178 -226 308 -396 401
-165 91 -392 133 -580 108z m302 -441 c219 -77 361 -276 363 -507 1 -150 -50
-275 -155 -382 -153 -155 -376 -204 -580 -128 -357 134 -463 604 -197 879 71
74 126 108 226 142 107 36 234 35 343 -4z"/>
<path d="M3894 5132 c-158 -207 -147 -192 -479 -625 -159 -208 -297 -389 -306
-403 -9 -13 -27 -37 -40 -52 -13 -15 -49 -61 -80 -102 -31 -41 -91 -120 -133
-175 -43 -55 -110 -143 -149 -195 -112 -147 -830 -1084 -839 -1095 -5 -5 -146
-190 -314 -410 -168 -220 -315 -411 -325 -425 -11 -14 -107 -140 -214 -280
-107 -140 -242 -317 -300 -392 -58 -75 -105 -139 -105 -141 0 -2 358 -4 795
-4 437 1 795 4 795 7 0 4 -8 16 -17 27 -10 11 -40 47 -68 79 -79 92 -138 159
-145 164 -25 19 -97 130 -111 172 -62 185 72 444 650 1251 113 159 213 299
221 310 219 320 848 1155 1135 1507 11 13 46 52 77 85 l58 60 53 -55 c45 -47
80 -88 199 -235 343 -424 1214 -1614 1565 -2140 296 -443 375 -635 322 -785
-26 -73 -81 -142 -248 -307 l-143 -143 821 1 c451 1 821 4 821 6 0 3 -295 395
-367 488 -30 38 -11 14 -213 280 -95 127 -223 295 -284 375 -60 80 -144 190
-185 245 -42 55 -81 106 -88 115 -27 34 -309 407 -323 426 -16 23 -243 322
-257 339 -10 12 -105 138 -292 385 -73 96 -137 182 -144 190 -7 8 -91 119
-187 245 -95 127 -222 293 -280 370 -190 249 -370 486 -504 664 -72 95 -158
209 -192 252 l-61 78 -119 -157z"/>
</g>
</svg>
